<?xml version="1.0" standalone="no"?>
<!DOCTYPE svg PUBLIC "-//W3C//DTD SVG 20010904//EN"
 "http://www.w3.org/TR/2001/REC-SVG-20010904/DTD/svg10.dtd">
<svg version="1.0" xmlns="http://www.w3.org/2000/svg"
 width="1024.000000pt" height="1024.000000pt" viewBox="0 0 1024.000000 1024.000000"
 preserveAspectRatio="xMidYMid meet">

<g transform="translate(0.000000,1024.000000) scale(0.100000,-0.100000)"
fill="#000000" stroke="none">
<path d="M4625 9313 c-454 -39 -910 -254 -1264 -598 -370 -358 -587 -808 -725
-1501 -90 -453 -129 -881 -161 -1749 -35 -973 -5 -1495 114 -1956 25 -96 78
-250 98 -282 2 -4 22 8 43 26 57 52 178 131 292 192 156 82 379 170 866 341
101 36 223 82 270 104 48 21 89 36 92 34 3 -3 -4 -10 -15 -16 -11 -6 -37 -28
-57 -48 -35 -34 -38 -43 -38 -92 0 -62 44 -164 102 -236 36 -46 117 -115 167
-145 49 -29 36 -14 -24 28 -76 52 -153 138 -186 209 -27 57 -28 69 -13 144 5
26 46 65 72 69 44 7 79 6 92 -2 15 -9 20 -11 85 -20 21 -3 46 -11 54 -18 12
-10 13 -9 6 3 -7 12 -6 13 6 4 11 -9 49 -23 79 -28 3 -1 11 -5 18 -10 7 -4 16
-5 19 -2 3 3 18 -1 34 -10 16 -8 29 -12 29 -8 0 4 6 2 13 -4 7 -6 31 -12 54
-14 23 -3 47 -9 55 -15 23 -18 48 -23 48 -10 0 7 3 8 8 2 8 -11 20 -13 99 -19
29 -2 57 -7 62 -11 6 -3 11 -1 11 6 0 10 3 10 12 1 16 -16 50 -15 67 1 8 6 11
7 8 1 -4 -7 10 -10 39 -10 24 1 44 3 44 6 0 3 16 5 35 4 19 -1 38 2 41 7 3 6
14 7 24 4 11 -3 28 -2 38 4 11 6 35 11 55 13 20 1 34 5 32 9 -3 3 19 10 47 13
29 4 57 10 62 14 6 3 16 8 21 9 47 12 119 44 117 53 -1 6 1 9 6 6 5 -3 31 1
58 8 72 19 203 20 237 2 19 -11 27 -11 27 -3 0 7 4 6 10 -3 5 -8 10 -36 10
-61 0 -71 -56 -175 -144 -262 -40 -41 -55 -59 -33 -43 95 72 184 207 193 293
7 61 -17 109 -69 143 -53 34 -33 36 39 4 107 -48 445 -181 708 -279 142 -53
307 -118 365 -144 102 -46 295 -156 335 -190 11 -9 16 -11 13 -4 -4 6 11 56
33 111 91 226 153 539 185 937 72 889 20 2188 -116 2875 -83 419 -227 820
-388 1079 -385 621 -1077 1030 -1741 1031 -139 0 -202 -10 -233 -38 -16 -14
-21 -14 -56 6 -22 13 -72 27 -113 32 -69 9 -285 11 -373 3z m524 -736 c26
-190 151 -384 358 -556 50 -42 191 -148 312 -234 199 -142 401 -299 401 -312
0 -3 -46 32 -102 78 -57 45 -145 112 -196 147 -143 100 -281 198 -318 227 -19
14 -34 23 -34 20 0 -3 57 -49 128 -101 136 -103 254 -199 349 -283 32 -29 69
-62 82 -73 14 -11 70 -62 125 -114 56 -51 124 -113 151 -137 84 -74 245 -262
245 -286 0 -4 6 -14 14 -22 34 -39 159 -288 180 -361 27 -90 34 -341 22 -752
-4 -152 -4 -152 53 -85 21 23 42 37 57 37 28 0 70 -42 86 -87 11 -29 13 -30
25 -15 11 14 12 13 2 -13 -43 -121 -113 -215 -160 -215 -45 0 -87 37 -101 89
-2 8 -14 -22 -26 -67 -91 -329 -297 -662 -552 -889 -184 -164 -402 -292 -618
-363 -219 -72 -298 -84 -542 -84 -240 0 -319 12 -528 79 -329 108 -639 332
-863 626 -135 177 -228 361 -301 593 -42 136 -42 136 -55 104 -44 -104 -117
-109 -184 -11 -41 59 -99 196 -98 231 0 23 2 22 14 -13 8 -22 13 -31 12 -20
-2 29 22 82 41 89 9 3 24 11 33 17 29 22 63 1 113 -68 45 -64 48 -66 42 -33
-11 55 -16 620 -7 670 5 25 12 64 15 87 11 87 37 161 92 268 31 61 68 124 80
141 13 17 24 34 24 37 0 44 363 455 505 572 23 18 57 48 76 67 51 49 342 278
353 278 8 0 116 82 116 88 0 2 -10 -3 -23 -11 -13 -8 -64 -41 -113 -73 -217
-141 -406 -289 -574 -449 -81 -77 -93 -86 -40 -31 174 181 392 350 754 584
218 142 286 193 362 270 109 112 183 257 192 375 3 37 6 66 8 65 1 -2 7 -38
13 -81z m1291 -1304 c0 -3 -45 36 -100 87 -55 51 -100 94 -100 97 0 3 45 -36
100 -87 55 -51 100 -94 100 -97z m-2690 4 c0 -2 -12 -14 -27 -28 l-28 -24 24
28 c23 25 31 32 31 24z m2750 -72 c13 -14 21 -25 18 -25 -2 0 -15 11 -28 25
-13 14 -21 25 -18 25 2 0 15 -11 28 -25z m-2820 -9 c0 -2 -8 -10 -17 -17 -16
-13 -17 -12 -4 4 13 16 21 21 21 13z m-240 -336 c-6 -11 -13 -20 -16 -20 -2 0
0 9 6 20 6 11 13 20 16 20 2 0 0 -9 -6 -20z m-30 -50 c-6 -11 -13 -20 -16 -20
-2 0 0 9 6 20 6 11 13 20 16 20 2 0 0 -9 -6 -20z m-293 -832 c-3 -8 -6 -5 -6
6 -1 11 2 17 5 13 3 -3 4 -12 1 -19z m-10 -50 c-3 -7 -5 -2 -5 12 0 14 2 19 5
13 2 -7 2 -19 0 -25z m-10 -40 c-3 -8 -6 -5 -6 6 -1 11 2 17 5 13 3 -3 4 -12
1 -19z m-10 -50 c-3 -8 -6 -5 -6 6 -1 11 2 17 5 13 3 -3 4 -12 1 -19z m-10
-50 c-3 -7 -5 -2 -5 12 0 14 2 19 5 13 2 -7 2 -19 0 -25z m1350 -1585 c-3 -10
-5 -4 -5 12 0 17 2 24 5 18 2 -7 2 -21 0 -30z m1330 0 c-3 -10 -5 -4 -5 12 0
17 2 24 5 18 2 -7 2 -21 0 -30z m-1340 -45 c-3 -8 -6 -5 -6 6 -1 11 2 17 5 13
3 -3 4 -12 1 -19z m1356 -23 c5 -28 4 -34 -3 -20 -8 19 -14 73 -6 64 2 -2 6
-22 9 -44z m-1391 -78 c-16 -34 -50 -84 -76 -112 l-48 -50 42 50 c42 49 99
155 101 185 0 10 2 11 6 2 2 -7 -8 -40 -25 -75z m1505 -126 c21 -17 33 -31 27
-31 -15 0 -89 80 -108 118 -27 53 -17 50 14 -4 16 -29 46 -66 67 -83z"/>
<path d="M5885 7233 c-22 -2 -82 -10 -132 -19 -107 -18 -143 -40 -143 -85 0
-36 42 -83 68 -75 9 2 75 10 146 17 268 25 516 -16 719 -121 118 -60 131 -37
35 65 -150 160 -409 242 -693 218z"/>
<path d="M4080 7214 c-190 -35 -321 -90 -413 -174 -62 -57 -104 -117 -91 -130
5 -4 53 13 106 39 202 100 335 126 578 117 91 -3 188 -9 217 -12 46 -6 54 -4
77 19 83 83 -31 137 -304 142 -80 2 -156 2 -170 -1z"/>
<path d="M4010 6725 c-171 -42 -313 -152 -381 -293 -31 -65 -36 -117 -9 -117
8 0 19 11 26 25 6 14 20 43 30 64 25 54 113 147 175 187 86 55 171 80 289 86
164 9 277 -32 382 -138 80 -79 120 -166 126 -271 6 -109 17 -104 39 19 8 48
-30 160 -78 233 -68 101 -177 176 -301 205 -77 18 -224 18 -298 0z"/>
<path d="M5860 6719 c-240 -63 -407 -289 -365 -496 8 -37 9 -36 22 42 33 193
148 327 337 393 139 48 336 26 472 -54 95 -56 186 -159 216 -245 21 -63 53
-67 46 -5 -17 150 -206 325 -400 371 -89 21 -236 18 -328 -6z"/>
<path d="M4104 6618 c-48 -15 -123 -77 -160 -131 -59 -86 -66 -205 -17 -300
24 -48 85 -107 137 -135 45 -24 62 -27 146 -27 84 0 101 3 146 27 113 60 182
179 171 297 -10 116 -75 208 -181 257 -41 19 -67 24 -131 23 -44 -1 -94 -6
-111 -11z m65 -63 c50 -25 55 -73 12 -116 -36 -36 -60 -37 -100 -3 -40 33 -40
66 -2 105 33 33 50 35 90 14z m201 -25 c0 -5 -5 -10 -11 -10 -5 0 -7 5 -4 10
3 6 8 10 11 10 2 0 4 -4 4 -10z m100 -140 c-20 -13 -33 -13 -25 0 3 6 14 10
23 10 15 0 15 -2 2 -10z m-500 -90 c0 -5 -2 -10 -4 -10 -3 0 -8 5 -11 10 -3 6
-1 10 4 10 6 0 11 -4 11 -10z m490 -30 c8 -5 11 -10 5 -10 -5 0 -17 5 -25 10
-8 5 -10 10 -5 10 6 0 17 -5 25 -10z m-453 -76 c-3 -3 -12 -4 -19 -1 -8 3 -5
6 6 6 11 1 17 -2 13 -5z m18 -33 c-3 -6 -11 -8 -17 -5 -6 4 -5 9 3 15 16 10
23 4 14 -10z m35 -16 c0 -2 -6 -8 -13 -14 -10 -8 -14 -7 -14 2 0 8 6 14 14 14
7 0 13 -1 13 -2z m30 -44 c0 -5 -7 -12 -16 -15 -14 -5 -15 -4 -4 9 14 17 20
19 20 6z"/>
<path d="M5845 6602 c-113 -54 -180 -156 -179 -277 0 -267 325 -407 526 -226
75 67 103 128 103 226 0 68 -5 88 -28 132 -61 117 -152 173 -282 173 -67 0
-90 -5 -140 -28z m98 -64 c52 -62 -30 -158 -99 -114 -38 26 -51 62 -33 94 30
54 95 64 132 20z m164 10 c-3 -8 -6 -5 -6 6 -1 11 2 17 5 13 3 -3 4 -12 1 -19z
m43 -12 c0 -3 -4 -8 -10 -11 -5 -3 -10 -1 -10 4 0 6 5 11 10 11 6 0 10 -2 10
-4z m50 -40 c0 -3 -4 -8 -10 -11 -5 -3 -10 -1 -10 4 0 6 5 11 10 11 6 0 10 -2
10 -4z m10 -26 c0 -5 -8 -10 -17 -10 -15 0 -16 2 -3 10 19 12 20 12 20 0z m45
-170 c-3 -5 -14 -10 -23 -10 -15 0 -15 2 -2 10 20 13 33 13 25 0z m-15 -36 c0
-2 -7 -4 -15 -4 -8 0 -15 4 -15 10 0 5 7 7 15 4 8 -4 15 -8 15 -10z m-23 -40
c-3 -3 -12 -4 -19 -1 -8 3 -5 6 6 6 11 1 17 -2 13 -5z m-47 -50 c0 -8 -5 -12
-10 -9 -6 4 -8 11 -5 16 9 14 15 11 15 -7z m-350 -40 c0 -8 -19 -13 -24 -6 -3
5 1 9 9 9 8 0 15 -2 15 -3z m21 -36 c-10 -11 -11 -9 -5 6 6 15 4 17 -6 11 -9
-6 -11 -4 -5 4 5 9 10 10 18 2 8 -8 7 -14 -2 -23z m269 7 c0 -8 -4 -15 -10
-15 -5 0 -7 7 -4 15 4 8 8 15 10 15 2 0 4 -7 4 -15z m-230 1 c0 -3 -4 -8 -10
-11 -5 -3 -10 -1 -10 4 0 6 5 11 10 11 6 0 10 -2 10 -4z m43 -36 c3 -11 1 -18
-4 -14 -5 3 -9 12 -9 20 0 20 7 17 13 -6z m134 -2 c-3 -8 -6 -5 -6 6 -1 11 2
17 5 13 3 -3 4 -12 1 -19z"/>
<path d="M4809 5525 c-11 -75 31 -153 102 -191 42 -22 39 -21 126 -38 167 -31
317 49 338 182 9 56 -5 53 -33 -8 -27 -59 -77 -95 -162 -118 -60 -15 -104 -12
-200 15 -71 19 -108 51 -145 122 -13 25 -25 42 -26 36z"/>
<path d="M6776 5454 c-34 -109 -88 -239 -112 -272 -14 -17 -22 -37 -19 -42 4
-6 1 -9 -7 -8 -9 2 -12 -5 -10 -22 2 -14 1 -22 -4 -18 -9 9 -47 -50 -39 -61 2
-5 -3 -8 -12 -7 -10 0 -25 -15 -37 -39 -11 -22 -31 -50 -42 -61 -12 -12 -30
-36 -39 -55 -10 -18 -36 -53 -59 -76 -65 -67 -90 -96 -102 -118 -6 -11 -16
-19 -23 -17 -7 1 -10 -1 -8 -5 3 -5 -1 -17 -9 -28 -8 -10 -14 -15 -14 -10 0 5
-7 0 -16 -11 -8 -10 -12 -13 -8 -5 5 9 3 12 -4 7 -7 -4 -12 -14 -12 -22 0 -8
-4 -12 -10 -9 -5 3 -10 1 -10 -5 0 -7 -5 -10 -12 -8 -12 4 -64 -42 -60 -54 1
-4 -4 -5 -12 -2 -7 3 -18 -1 -25 -9 -9 -11 -8 -17 4 -27 17 -14 41 1 168 113
166 147 320 351 423 562 52 108 137 340 131 358 -1 5 -11 -17 -21 -49z"/>
<path d="M3270 5470 c-9 -6 -10 -10 -3 -10 6 0 15 5 18 10 8 12 4 12 -15 0z"/>
<path d="M3411 5424 c0 -11 3 -14 6 -6 3 7 2 16 -1 19 -3 4 -6 -2 -5 -13z"/>
<path d="M3425 5380 c53 -180 182 -416 324 -592 123 -153 429 -413 461 -393 6
4 9 1 8 -6 -3 -13 205 -123 252 -133 16 -4 12 0 -13 12 -20 10 -34 22 -30 27
5 4 3 5 -4 1 -14 -7 -125 48 -116 58 4 3 -6 6 -20 6 -15 0 -26 5 -24 11 2 12
-9 20 -73 49 -51 22 -70 37 -86 65 -7 11 -19 19 -28 17 -9 -2 -16 4 -16 12 0
8 -9 18 -20 21 -11 3 -20 13 -20 21 0 17 -16 19 -23 2 -4 -9 -6 -8 -6 3 -1 8
-15 28 -33 45 -17 16 -28 22 -24 14 4 -8 1 -6 -8 4 -8 10 -13 23 -10 27 3 5 1
9 -4 9 -5 0 -22 13 -38 30 -16 16 -35 30 -42 30 -7 0 -10 5 -7 10 3 6 3 10 -2
10 -4 0 -19 18 -32 40 -17 28 -27 36 -33 27 -6 -9 -8 -9 -8 1 0 18 -63 121
-73 122 -5 0 -5 -5 -1 -12 4 -7 3 -8 -5 -4 -6 4 -9 11 -6 16 3 5 1 11 -5 15
-6 4 -8 10 -5 15 6 9 -16 40 -47 69 -10 8 -18 21 -18 28 0 7 -5 13 -11 13 -5
0 -7 5 -3 12 4 7 3 8 -4 4 -8 -5 -12 0 -12 13 0 12 -4 21 -9 21 -9 0 -58 104
-96 205 -27 70 -44 102 -30 55z"/>
<path d="M4430 5111 c0 -4 10 -17 23 -28 109 -101 508 -181 765 -153 204 21
425 84 515 146 21 14 37 28 34 30 -2 2 -33 -9 -69 -25 -141 -64 -265 -94 -452
-111 -264 -23 -654 39 -780 125 -20 13 -36 21 -36 16z"/>
<path d="M4530 4996 c0 -2 8 -10 18 -17 15 -13 16 -12 3 4 -13 16 -21 21 -21
13z"/>
<path d="M4604 4941 c7 -11 46 -35 46 -28 0 3 -12 12 -26 22 -15 9 -23 12 -20
6z"/>
<path d="M5475 4895 c-141 -68 -333 -101 -491 -85 -99 10 -142 22 -244 65 -95
39 -107 36 -17 -5 132 -60 201 -75 342 -75 133 1 204 12 310 47 63 22 175 75
175 83 0 6 7 9 -75 -30z"/>
<path d="M6060 4459 c0 -5 -4 -8 -9 -5 -5 3 -12 -1 -15 -10 -3 -9 -11 -12 -18
-8 -7 4 -10 4 -6 -1 13 -14 -165 -121 -183 -109 -7 4 -9 3 -6 -3 4 -6 -8 -16
-26 -23 -17 -6 -40 -16 -50 -21 -10 -5 -23 -7 -29 -3 -6 4 -8 3 -4 -4 3 -6 -7
-13 -26 -18 -18 -4 -28 -9 -21 -11 40 -14 424 191 408 217 -8 13 -15 13 -15
-1z"/>
<path d="M5770 3409 c-22 -18 -22 -19 -3 -10 12 6 25 16 28 21 9 15 3 12 -25
-11z"/>
<path d="M5714 3374 c-18 -14 -18 -15 4 -4 12 6 22 13 22 15 0 8 -5 6 -26 -11z"/>
<path d="M4457 3359 c7 -7 15 -10 18 -7 3 3 -2 9 -12 12 -14 6 -15 5 -6 -5z"/>
<path d="M4620 3290 c8 -5 20 -10 25 -10 6 0 3 5 -5 10 -8 5 -19 10 -25 10 -5
0 -3 -5 5 -10z"/>
<path d="M5228 3233 c7 -3 16 -2 19 1 4 3 -2 6 -13 5 -11 0 -14 -3 -6 -6z"/>
<path d="M2878 2931 c-4 -13 6 -231 23 -485 31 -496 69 -1113 69 -1132 0 -9
-20 -8 -77 3 -131 24 -252 60 -551 163 -158 55 -289 100 -292 100 -14 -1 32
-22 88 -41 l63 -21 -5 -42 -6 -41 13 36 12 37 175 -60 c228 -78 373 -121 487
-143 l91 -17 6 -82 c3 -44 13 -191 22 -326 9 -135 18 -248 20 -252 3 -4 -30
-9 -73 -11 l-78 -3 77 -2 77 -2 6 -38 c18 -104 61 -157 137 -166 24 -3 907 -8
1964 -12 2123 -6 1959 -11 2021 59 22 25 34 50 38 84 4 26 11 71 16 98 8 45
25 264 45 563 5 86 9 102 23 102 39 0 282 66 481 131 118 39 221 72 228 75 7
2 16 -6 21 -18 7 -21 8 -20 13 10 2 18 1 32 -2 32 -4 0 -108 -33 -231 -74
-289 -95 -512 -156 -526 -142 -2 2 1 61 7 132 23 280 82 1207 85 1344 4 121
-46 -556 -119 -1635 -18 -266 -27 -335 -21 -175 3 114 -8 84 -19 -50 -6 -65
-19 -168 -31 -235 -14 -81 -19 -91 -66 -132 -51 -46 -164 -50 -1124 -38 -1115
13 -2475 19 -2635 11 -19 -1 -41 3 -47 8 -8 5 -13 4 -13 -3 0 -7 -3 -10 -8 -7
-4 2 -28 7 -52 11 -74 11 -108 38 -115 90 -2 11 -8 47 -15 80 -14 70 -17 87
-24 135 -2 20 -7 47 -10 60 -10 45 -16 84 -24 160 l-7 75 -6 -65 c-6 -56 -6
-52 -5 32 0 53 -2 92 -5 87 -3 -6 -11 84 -18 198 -7 114 -19 307 -26 428 -30
464 -65 1022 -67 1075 -2 39 -5 48 -10 31z m139 -2028 c-2 -16 -4 -5 -4 22 0
28 2 40 4 28 2 -13 2 -35 0 -50z m4180 -95 c-3 -7 -5 -2 -5 12 0 14 2 19 5 13
2 -7 2 -19 0 -25z"/>
<path d="M5189 2049 l-24 -20 30 17 c39 24 40 24 28 24 -6 0 -21 -9 -34 -21z"/>
<path d="M5241 2044 c0 -11 3 -14 6 -6 3 7 2 16 -1 19 -3 4 -6 -2 -5 -13z"/>
<path d="M5124 1998 l-29 -33 33 29 c17 17 32 31 32 33 0 8 -8 1 -36 -29z"/>
<path d="M5194 1954 c-17 -18 -28 -34 -24 -34 7 0 43 38 54 58 12 20 3 13 -30
-24z"/>
<path d="M5085 1951 c-6 -5 -19 -11 -30 -14 -19 -4 -19 -5 1 -6 12 0 27 6 34
14 14 16 10 20 -5 6z"/>
<path d="M4898 1943 c7 -3 16 -2 19 1 4 3 -2 6 -13 5 -11 0 -14 -3 -6 -6z"/>
<path d="M4968 1943 c12 -2 30 -2 40 0 9 3 -1 5 -23 4 -22 0 -30 -2 -17 -4z"/>
<path d="M4840 1914 c-30 -26 -66 -82 -57 -90 2 -3 10 9 17 26 7 17 29 44 49
60 19 17 33 30 29 30 -4 0 -20 -12 -38 -26z"/>
<path d="M5228 1933 c12 -2 32 -2 45 0 12 2 2 4 -23 4 -25 0 -35 -2 -22 -4z"/>
<path d="M5375 1880 c10 -11 20 -20 23 -20 3 0 -3 9 -13 20 -10 11 -20 20 -23
20 -3 0 3 -9 13 -20z"/>
<path d="M5388 1823 c-22 -26 -41 -64 -34 -71 3 -3 6 -1 6 5 0 6 11 27 25 47
26 39 28 47 3 19z"/>
<path d="M4771 1794 c0 -11 3 -14 6 -6 3 7 2 16 -1 19 -3 4 -6 -2 -5 -13z"/>
<path d="M4763 1725 c0 -27 2 -38 4 -22 2 15 2 37 0 50 -2 12 -4 0 -4 -28z"/>
<path d="M5343 1695 c0 -27 2 -38 4 -22 2 15 2 37 0 50 -2 12 -4 0 -4 -28z"/>
<path d="M4772 1645 c0 -16 2 -22 5 -12 2 9 2 23 0 30 -3 6 -5 -1 -5 -18z"/>
<path d="M5356 1616 c3 -17 14 -43 26 -58 25 -36 19 -61 -29 -125 -20 -26 -28
-41 -18 -33 24 19 75 100 75 118 0 8 -8 26 -19 40 -10 15 -23 41 -30 57 l-11
30 6 -29z"/>
<path d="M4781 1600 c0 -8 4 -22 9 -30 12 -18 12 -2 0 25 -6 13 -9 15 -9 5z"/>
<path d="M4800 1545 c0 -5 5 -17 10 -25 5 -8 10 -10 10 -5 0 6 -5 17 -10 25
-5 8 -10 11 -10 5z"/>
<path d="M8045 1540 c-13 -6 -15 -9 -5 -9 8 0 22 4 30 9 18 12 2 12 -25 0z"/>
<path d="M4820 1497 c0 -14 47 -82 71 -102 l24 -20 -24 27 c-13 15 -34 44 -47
65 -13 21 -24 35 -24 30z"/>
<path d="M8011 1447 c-1 -20 54 -376 69 -442 8 -35 8 -33 3 15 -7 75 -71 450
-72 427z"/>
<path d="M2176 1379 c-4 -28 -5 -53 -3 -56 3 -2 8 19 12 47 4 28 5 53 2 56 -2
3 -7 -19 -11 -47z"/>
<path d="M5078 1393 c6 -2 18 -2 25 0 6 3 1 5 -13 5 -14 0 -19 -2 -12 -5z"/>
<path d="M4990 1380 c-34 -7 -34 -7 -5 -8 17 0 41 4 55 8 33 11 0 11 -50 0z"/>
<path d="M5128 1383 c7 -3 16 -2 19 1 4 3 -2 6 -13 5 -11 0 -14 -3 -6 -6z"/>
<path d="M5187 1373 c18 -2 50 -2 70 0 21 2 7 4 -32 4 -38 0 -55 -2 -38 -4z"/>
<path d="M2146 1185 c-10 -70 -16 -128 -13 -131 5 -6 40 232 35 246 -2 6 -12
-45 -22 -115z"/>
<path d="M3001 1234 c0 -11 3 -14 6 -6 3 7 2 16 -1 19 -3 4 -6 -2 -5 -13z"/>
<path d="M2115 980 c-4 -34 -5 -63 -2 -66 2 -3 7 23 11 57 4 33 5 63 3 66 -3
2 -8 -23 -12 -57z"/>
<path d="M8092 930 c0 -19 2 -27 5 -17 2 9 2 25 0 35 -3 9 -5 1 -5 -18z"/>
<path d="M2102 870 c0 -19 2 -27 5 -17 2 9 2 25 0 35 -3 9 -5 1 -5 -18z"/>
<path d="M8102 860 c0 -19 2 -27 5 -17 2 9 2 25 0 35 -3 9 -5 1 -5 -18z"/>
<path d="M2085 775 c-3 -31 -5 -59 -2 -61 3 -3 8 20 12 51 3 31 5 59 2 61 -3
3 -8 -20 -12 -51z"/>
<path d="M8112 800 c-1 -14 3 -43 7 -65 6 -26 9 -31 9 -15 1 14 -3 43 -7 65
-6 26 -9 31 -9 15z"/>
<path d="M2070 661 c-7 -50 -2 -54 66 -48 l49 3 -52 2 -52 2 -3 43 -3 42 -5
-44z"/>
<path d="M8132 660 c0 -14 2 -19 5 -12 2 6 2 18 0 25 -3 6 -5 1 -5 -13z"/>
<path d="M8028 613 c23 -2 59 -2 80 0 20 2 1 4 -43 4 -44 0 -61 -2 -37 -4z"/>
</g>
</svg>
